<svg width="48" height="48" viewBox="0 0 48 48" fill="none" xmlns="http://www.w3.org/2000/svg">
<path fill-rule="evenodd" clip-rule="evenodd" d="M8 16C9.10457 16 10 15.1046 10 14C10 12.8954 9.10457 12 8 12C6.89543 12 6 12.8954 6 14C6 15.1046 6.89543 16 8 16ZM16 12C14.8954 12 14 12.8954 14 14C14 15.1046 14.8954 16 16 16H40C41.1046 16 42 15.1046 42 14C42 12.8954 41.1046 12 40 12H16ZM16 22C14.8954 22 14 22.8954 14 24C14 25.1046 14.8954 26 16 26H40C41.1046 26 42 25.1046 42 24C42 22.8954 41.1046 22 40 22H16ZM16 32C14.8954 32 14 32.8954 14 34C14 35.1046 14.8954 36 16 36H40C41.1046 36 42 35.1046 42 34C42 32.8954 41.1046 32 40 32H16ZM10 24C10 25.1046 9.10457 26 8 26C6.89543 26 6 25.1046 6 24C6 22.8954 6.89543 22 8 22C9.10457 22 10 22.8954 10 24ZM8 36C9.10457 36 10 35.1046 10 34C10 32.8954 9.10457 32 8 32C6.89543 32 6 32.8954 6 34C6 35.1046 6.89543 36 8 36Z" fill="#1F2937"/>
</svg>
